<svg width="1230" height="307" viewBox="0 0 1230 307" fill="none" xmlns="http://www.w3.org/2000/svg">
<g filter="url(#filter0_d_2239_39981)">
<path d="M50 30H1230V237H50V30Z" fill="#532F82"/>
</g>
<path opacity="0.3" d="M1168.01 215.605L1160.02 207.17L1171.56 194.979L1179.55 203.415L1168.01 215.605ZM1140.72 227.565L1148.7 236L1160.24 223.809L1152.26 215.374L1140.72 227.565ZM1171.76 236L1179.55 227.778L1168.02 215.605L1160.24 223.827L1171.76 236ZM1152.24 215.374L1160.02 207.152L1148.48 194.962L1140.7 203.183L1152.24 215.374ZM1229.98 220.766V210.213H1215.56V220.766H1229.98ZM1191.42 210.213V220.766H1205.84V210.213H1191.42ZM1205.84 236H1215.56V220.766H1205.84V236ZM1205.84 210.213H1215.56V194.979H1205.84V210.213ZM1077.46 203.415L1069.47 194.979L1057.93 207.17L1065.92 215.605L1077.46 203.415ZM1038.63 227.565L1046.61 236L1058.15 223.809L1050.17 215.374L1038.63 227.565ZM1069.68 236L1077.46 227.778L1065.94 215.605L1058.15 223.827L1069.68 236ZM1050.15 215.374L1057.93 207.152L1046.39 194.962L1038.61 203.183L1050.15 215.374ZM1127.9 220.766V210.213H1113.48V220.766H1127.9ZM1089.34 210.213V220.766H1103.76V210.213H1089.34ZM1103.76 236H1113.48V220.766H1103.76V236ZM1103.76 210.213H1113.48V194.979H1103.76V210.213ZM975.371 203.415L967.386 194.979L955.847 207.17L963.832 215.605L975.371 203.415ZM936.541 227.565L944.526 236L956.066 223.809L948.081 215.374L936.541 227.565ZM967.588 236L975.371 227.778L963.848 215.605L956.066 223.827L967.588 236ZM948.064 215.374L955.847 207.152L944.307 194.962L936.524 203.183L948.064 215.374ZM1025.81 220.766V210.213H1011.39V220.766H1025.81ZM987.248 210.213V220.766H1001.67V210.213H987.248ZM1001.67 236H1011.39V220.766H1001.67V236ZM1001.67 210.213H1011.39V194.979H1001.67V210.213ZM873.284 203.415L865.299 194.979L853.759 207.17L861.744 215.605L873.284 203.415ZM834.454 227.565L842.439 236L853.978 223.809L845.993 215.374L834.454 227.565ZM865.501 236L873.284 227.778L861.761 215.605L853.978 223.827L865.501 236ZM845.976 215.374L853.759 207.152L842.22 194.962L834.437 203.183L845.976 215.374ZM923.721 220.766V210.213H909.301V220.766H923.721ZM885.16 210.213V220.766H899.581V210.213H885.16ZM899.581 236H909.301V220.766H899.581V236ZM899.581 210.213H909.301V194.979H899.581V210.213ZM771.196 203.415L763.211 194.979L751.672 207.17L759.657 215.605L771.196 203.415ZM732.366 227.565L740.351 236L751.891 223.809L743.906 215.374L732.366 227.565ZM763.414 236L771.196 227.778L759.674 215.605L751.891 223.827L763.414 236ZM743.889 215.374L751.672 207.152L740.132 194.962L732.349 203.183L743.889 215.374ZM821.634 220.766V210.213H807.213V220.766H821.634ZM783.073 210.213V220.766H797.493V210.213H783.073ZM797.493 236H807.213V220.766H797.493V236ZM797.493 210.213H807.213V194.979H797.493V210.213ZM669.109 203.415L661.124 194.979L649.584 207.17L657.57 215.605L669.109 203.415ZM630.279 227.565L638.264 236L649.803 223.809L641.818 215.374L630.279 227.565ZM661.326 236L669.109 227.778L657.586 215.605L649.803 223.827L661.326 236ZM641.802 215.374L649.584 207.152L638.045 194.962L630.262 203.183L641.802 215.374ZM719.546 220.766V210.213H705.126V220.766H719.546ZM680.986 210.213V220.766H695.406V210.213H680.986ZM695.406 236H705.126V220.766H695.406V236ZM695.406 210.213H705.126V194.979H695.406V210.213ZM567.022 203.415L559.037 194.979L547.497 207.17L555.482 215.605L567.022 203.415ZM528.192 227.565L536.177 236L547.716 223.809L539.731 215.374L528.192 227.565ZM559.239 236L567.022 227.778L555.499 215.605L547.716 223.827L559.239 236ZM539.714 215.374L547.497 207.152L535.958 194.962L528.175 203.183L539.714 215.374ZM617.459 220.766V210.213H603.039V220.766L617.459 220.766ZM578.898 210.213V220.766H593.319V210.213H578.898ZM593.319 236H603.039V220.766H593.319V236ZM593.319 210.213L603.039 210.213V194.979H593.319V210.213ZM464.934 203.415L456.949 194.979L445.41 207.17L453.395 215.605L464.934 203.415ZM426.104 227.565L434.089 236L445.629 223.809L437.644 215.374L426.104 227.565ZM457.152 236L464.934 227.778L453.412 215.605L445.629 223.827L457.152 236ZM437.627 215.374L445.41 207.152L433.87 194.962L426.087 203.183L437.627 215.374ZM515.372 220.766V210.213H500.951V220.766H515.372ZM476.811 210.213V220.766H491.231V210.213L476.811 210.213ZM491.231 236H500.951V220.766H491.231V236ZM491.231 210.213H500.951V194.979H491.231V210.213ZM362.847 203.415L354.862 194.979L343.322 207.17L351.307 215.605L362.847 203.415ZM324.017 227.565L332.002 236L343.541 223.809L335.556 215.374L324.017 227.565ZM355.064 236L362.847 227.778L351.324 215.605L343.541 223.827L355.064 236ZM335.54 215.374L343.322 207.152L331.783 194.962L324 203.183L335.54 215.374ZM413.284 220.766V210.213H398.864V220.766H413.284ZM374.724 210.213V220.766H389.144V210.213H374.724ZM389.144 236H398.864V220.766H389.144V236ZM389.144 210.213H398.864V194.979H389.144V210.213ZM374.454 172.858L382.439 181.294L393.979 169.103L385.994 160.668L374.454 172.858ZM413.284 148.709L405.299 140.273L393.76 152.464L401.745 160.899L413.284 148.709ZM382.237 140.273L374.454 148.495L385.977 160.668L393.76 152.446L382.237 140.273ZM401.762 160.899L393.979 169.121L405.518 181.312L413.301 173.09L401.762 160.899ZM324.017 155.507V166.06H338.437V155.507H324.017ZM362.578 166.06V155.507H348.157V166.06H362.578ZM348.157 140.273H338.437V155.507H348.157V140.273ZM348.157 166.06H338.437V181.294H348.157V166.06ZM476.541 172.858L484.526 181.294L496.066 169.103L488.081 160.668L476.541 172.858ZM515.372 148.709L507.387 140.273L495.847 152.464L503.832 160.899L515.372 148.709ZM484.324 140.273L476.541 148.495L488.064 160.668L495.847 152.446L484.324 140.273ZM503.849 160.899L496.066 169.121L507.606 181.312L515.388 173.09L503.849 160.899ZM426.104 155.507V166.06H440.524V155.507H426.104ZM464.665 166.06V155.507H450.245V166.06H464.665ZM450.245 140.273H440.524V155.507H450.245V140.273ZM450.245 166.06H440.524V181.294H450.245V166.06ZM578.629 172.858L586.614 181.294L598.153 169.103L590.168 160.668L578.629 172.858ZM617.459 148.709L609.474 140.273L597.934 152.464L605.919 160.899L617.459 148.709ZM586.412 140.273L578.629 148.495L590.151 160.668L597.934 152.446L586.412 140.273ZM605.936 160.899L598.153 169.121L609.693 181.312L617.476 173.09L605.936 160.899ZM528.192 155.507V166.06H542.612V155.507H528.192ZM566.752 166.06V155.507H552.332V166.06H566.752ZM552.332 140.273H542.612V155.507H552.332V140.273ZM552.332 166.06H542.612V181.294H552.332V166.06ZM680.716 172.858L688.701 181.294L700.241 169.103L692.256 160.668L680.716 172.858ZM719.546 148.709L711.561 140.273L700.022 152.464L708.007 160.899L719.546 148.709ZM688.499 140.273L680.716 148.495L692.239 160.668L700.022 152.446L688.499 140.273ZM708.024 160.899L700.241 169.121L711.78 181.312L719.563 173.09L708.024 160.899ZM630.279 155.507V166.06H644.699V155.507H630.279ZM668.84 166.06V155.507H654.419V166.06H668.84ZM654.419 140.273H644.699V155.507H654.419V140.273ZM654.419 166.06H644.699V181.294H654.419V166.06ZM782.803 172.858L790.788 181.294L802.328 169.103L794.343 160.668L782.803 172.858ZM821.634 148.709L813.649 140.273L802.109 152.464L810.094 160.899L821.634 148.709ZM790.586 140.273L782.803 148.495L794.326 160.668L802.109 152.446L790.586 140.273ZM810.111 160.899L802.328 169.121L813.868 181.312L821.651 173.09L810.111 160.899ZM732.366 155.507V166.06H746.786V155.507H732.366ZM770.927 166.06V155.507H756.507V166.06H770.927ZM756.507 140.273H746.786V155.507H756.507V140.273ZM756.507 166.06H746.786V181.294H756.507V166.06ZM884.891 172.858L892.876 181.294L904.415 169.103L896.43 160.668L884.891 172.858ZM923.721 148.709L915.736 140.273L904.196 152.464L912.182 160.899L923.721 148.709ZM892.674 140.273L884.891 148.495L896.414 160.668L904.196 152.446L892.674 140.273ZM912.198 160.899L904.415 169.121L915.955 181.312L923.738 173.09L912.198 160.899ZM834.454 155.507V166.06H848.874V155.507H834.454ZM873.014 166.06V155.507H858.594V166.06H873.014ZM858.594 140.273L848.874 140.273V155.507L858.594 155.507V140.273ZM858.594 166.06L848.874 166.06V181.294H858.594V166.06ZM986.978 172.858L994.963 181.294L1006.5 169.103L998.518 160.668L986.978 172.858ZM1025.81 148.709L1017.82 140.273L1006.28 152.464L1014.27 160.899L1025.81 148.709ZM994.761 140.273L986.978 148.495L998.501 160.668L1006.28 152.446L994.761 140.273ZM1014.29 160.899L1006.5 169.121L1018.04 181.312L1025.83 173.09L1014.29 160.899ZM936.541 155.507V166.06H950.961V155.507H936.541ZM975.102 166.06V155.507H960.681V166.06H975.102ZM960.681 140.273H950.961V155.507H960.681V140.273ZM960.681 166.06H950.961V181.294H960.681V166.06ZM1089.07 172.858L1097.05 181.294L1108.59 169.103L1100.61 160.668L1089.07 172.858ZM1127.9 148.709L1119.91 140.273L1108.37 152.464L1116.36 160.899L1127.9 148.709ZM1096.85 140.273L1089.07 148.495L1100.59 160.668L1108.37 152.446L1096.85 140.273ZM1116.37 160.899L1108.59 169.121L1120.13 181.312L1127.91 173.09L1116.37 160.899ZM1038.63 155.507V166.06H1053.05V155.507H1038.63ZM1077.19 166.06V155.507H1062.77V166.06H1077.19ZM1062.77 140.273L1053.05 140.273V155.507L1062.77 155.507V140.273ZM1062.77 166.06L1053.05 166.06V181.294H1062.77V166.06ZM1191.15 172.858L1199.14 181.294L1210.68 169.103L1202.69 160.668L1191.15 172.858ZM1229.98 148.709L1222 140.273L1210.46 152.464L1218.44 160.899L1229.98 148.709ZM1198.94 140.273L1191.15 148.495L1202.68 160.668L1210.46 152.446L1198.94 140.273ZM1218.46 160.899L1210.68 169.121L1222.22 181.312L1230 173.09L1218.46 160.899ZM1140.72 155.507V166.06H1155.14V155.507H1140.72ZM1179.28 166.06V155.507H1164.86V166.06H1179.28ZM1164.86 140.273H1155.14V155.507H1164.86V140.273ZM1164.86 166.06H1155.14V181.294H1164.86V166.06ZM1179.55 95.1416L1171.56 86.7061L1160.02 98.8967L1168.01 107.332L1179.55 95.1416ZM1140.72 119.291L1148.7 127.727L1160.24 115.536L1152.26 107.101L1140.72 119.291ZM1171.76 127.727L1179.55 119.505L1168.02 107.332L1160.24 115.554L1171.76 127.727ZM1152.24 107.101L1160.02 98.8789L1148.48 86.6883L1140.7 94.9102L1152.24 107.101ZM1229.98 112.493V101.94H1215.56V112.493H1229.98ZM1191.42 101.94V112.493L1205.84 112.493V101.94H1191.42ZM1205.84 127.727H1215.56V112.493H1205.84V127.727ZM1205.84 101.94H1215.56V86.7061H1205.84V101.94ZM1077.46 95.1416L1069.47 86.7061L1057.93 98.8967L1065.92 107.332L1077.46 95.1416ZM1038.63 119.291L1046.61 127.727L1058.15 115.536L1050.17 107.101L1038.63 119.291ZM1069.68 127.727L1077.46 119.505L1065.94 107.332L1058.15 115.554L1069.68 127.727ZM1050.15 107.101L1057.93 98.8789L1046.39 86.6883L1038.61 94.9102L1050.15 107.101ZM1127.9 112.493V101.94H1113.48V112.493L1127.9 112.493ZM1089.34 101.94V112.493H1103.76V101.94H1089.34ZM1103.76 127.727H1113.48V112.493H1103.76V127.727ZM1103.76 101.94H1113.48V86.7061H1103.76V101.94ZM975.371 95.1416L967.386 86.7061L955.847 98.8967L963.832 107.332L975.371 95.1416ZM936.541 119.291L944.526 127.727L956.066 115.536L948.081 107.101L936.541 119.291ZM967.588 127.727L975.371 119.505L963.848 107.332L956.066 115.554L967.588 127.727ZM948.064 107.101L955.847 98.8789L944.307 86.6883L936.524 94.9102L948.064 107.101ZM1025.81 112.493V101.94L1011.39 101.94V112.493H1025.81ZM987.248 101.94V112.493L1001.67 112.493V101.94H987.248ZM1001.67 127.727H1011.39V112.493H1001.67V127.727ZM1001.67 101.94H1011.39V86.7061H1001.67V101.94ZM873.284 95.1416L865.299 86.7061L853.759 98.8967L861.744 107.332L873.284 95.1416ZM834.454 119.291L842.439 127.727L853.978 115.536L845.993 107.101L834.454 119.291ZM865.501 127.727L873.284 119.505L861.761 107.332L853.978 115.554L865.501 127.727ZM845.976 107.101L853.759 98.8789L842.22 86.6883L834.437 94.9102L845.976 107.101ZM923.721 112.493V101.94H909.301V112.493L923.721 112.493ZM885.16 101.94V112.493H899.581V101.94H885.16ZM899.581 127.727H909.301V112.493H899.581V127.727ZM899.581 101.94H909.301V86.7061H899.581V101.94ZM771.196 95.1416L763.211 86.7061L751.672 98.8967L759.657 107.332L771.196 95.1416ZM732.366 119.291L740.351 127.727L751.891 115.536L743.906 107.101L732.366 119.291ZM763.414 127.727L771.196 119.505L759.674 107.332L751.891 115.554L763.414 127.727ZM743.889 107.101L751.672 98.8789L740.132 86.6883L732.349 94.9102L743.889 107.101ZM821.634 112.493V101.94H807.213V112.493H821.634ZM783.073 101.94V112.493H797.493V101.94H783.073ZM797.493 127.727H807.213V112.493H797.493V127.727ZM797.493 101.94H807.213V86.7061H797.493V101.94ZM669.109 95.1416L661.124 86.7061L649.584 98.8967L657.57 107.332L669.109 95.1416ZM630.279 119.291L638.264 127.727L649.803 115.536L641.818 107.101L630.279 119.291ZM661.326 127.727L669.109 119.505L657.586 107.332L649.803 115.554L661.326 127.727ZM641.802 107.101L649.584 98.8789L638.045 86.6883L630.262 94.9102L641.802 107.101ZM719.546 112.493V101.94H705.126V112.493L719.546 112.493ZM680.986 101.94V112.493H695.406V101.94H680.986ZM695.406 127.727H705.126V112.493H695.406V127.727ZM695.406 101.94H705.126V86.7061H695.406V101.94ZM567.022 95.1416L559.037 86.7061L547.497 98.8967L555.482 107.332L567.022 95.1416ZM528.192 119.291L536.177 127.727L547.716 115.536L539.731 107.101L528.192 119.291ZM559.239 127.727L567.022 119.505L555.499 107.332L547.716 115.554L559.239 127.727ZM539.714 107.101L547.497 98.8789L535.958 86.6883L528.175 94.9102L539.714 107.101ZM617.459 112.493V101.94L603.039 101.94V112.493H617.459ZM578.898 101.94V112.493H593.319V101.94H578.898ZM593.319 127.727H603.039V112.493H593.319V127.727ZM593.319 101.94H603.039V86.7061H593.319V101.94ZM464.934 95.1416L456.949 86.7061L445.41 98.8967L453.395 107.332L464.934 95.1416ZM426.104 119.291L434.089 127.727L445.629 115.536L437.644 107.101L426.104 119.291ZM457.152 127.727L464.934 119.505L453.412 107.332L445.629 115.554L457.152 127.727ZM437.627 107.101L445.41 98.8789L433.87 86.6883L426.087 94.9102L437.627 107.101ZM515.372 112.493V101.94H500.951V112.493L515.372 112.493ZM476.811 101.94V112.493H491.231V101.94H476.811ZM491.231 127.727H500.951V112.493H491.231V127.727ZM491.231 101.94H500.951V86.7061H491.231V101.94ZM362.847 95.1416L354.862 86.7061L343.322 98.8967L351.307 107.332L362.847 95.1416ZM324.017 119.291L332.002 127.727L343.541 115.536L335.556 107.101L324.017 119.291ZM355.064 127.727L362.847 119.505L351.324 107.332L343.541 115.554L355.064 127.727ZM335.54 107.101L343.322 98.8789L331.783 86.6883L324 94.9102L335.54 107.101ZM413.284 112.493V101.94H398.864V112.493H413.284ZM374.724 101.94V112.493H389.144V101.94H374.724ZM389.144 127.727H398.864V112.493H389.144V127.727ZM389.144 101.94H398.864V86.7061H389.144V101.94ZM374.454 64.5852L382.439 73.0207L393.979 60.8302L385.994 52.3947L374.454 64.5852ZM413.284 40.4355L405.299 32L393.76 44.1905L401.745 52.6261L413.284 40.4355ZM382.237 32L374.454 40.222L385.977 52.3947L393.76 44.1728L382.237 32ZM401.762 52.6261L393.979 60.848L405.518 73.0385L413.301 64.8165L401.762 52.6261ZM324.017 47.2338V57.787L338.437 57.787V47.2338L324.017 47.2338ZM362.578 57.787V47.2338H348.157V57.787H362.578ZM348.157 32H338.437V47.2338H348.157V32ZM348.157 57.787H338.437V73.0207H348.157V57.787ZM476.541 64.5852L484.526 73.0207L496.066 60.8302L488.081 52.3947L476.541 64.5852ZM515.372 40.4355L507.387 32L495.847 44.1905L503.832 52.6261L515.372 40.4355ZM484.324 32L476.541 40.222L488.064 52.3947L495.847 44.1728L484.324 32ZM503.849 52.6261L496.066 60.848L507.606 73.0385L515.388 64.8165L503.849 52.6261ZM426.104 47.2338V57.787H440.524V47.2338H426.104ZM464.665 57.787V47.2338H450.245V57.787H464.665ZM450.245 32H440.524V47.2338H450.245V32ZM450.245 57.787H440.524V73.0207H450.245V57.787ZM578.629 64.5852L586.614 73.0207L598.153 60.8302L590.168 52.3947L578.629 64.5852ZM617.459 40.4355L609.474 32L597.934 44.1905L605.919 52.6261L617.459 40.4355ZM586.412 32L578.629 40.222L590.151 52.3947L597.934 44.1728L586.412 32ZM605.936 52.6261L598.153 60.848L609.693 73.0385L617.476 64.8165L605.936 52.6261ZM528.192 47.2338V57.787H542.612V47.2338H528.192ZM566.752 57.787V47.2338H552.332V57.787H566.752ZM552.332 32H542.612V47.2338H552.332V32ZM552.332 57.787H542.612V73.0207H552.332V57.787ZM680.716 64.5852L688.701 73.0207L700.241 60.8302L692.256 52.3947L680.716 64.5852ZM719.546 40.4355L711.561 32L700.022 44.1905L708.007 52.6261L719.546 40.4355ZM688.499 32L680.716 40.222L692.239 52.3947L700.022 44.1728L688.499 32ZM708.024 52.6261L700.241 60.848L711.78 73.0385L719.563 64.8165L708.024 52.6261ZM630.279 47.2338V57.787H644.699V47.2338H630.279ZM668.84 57.787V47.2338H654.419V57.787H668.84ZM654.419 32H644.699V47.2338H654.419V32ZM654.419 57.787H644.699V73.0207H654.419V57.787ZM782.803 64.5852L790.788 73.0207L802.328 60.8302L794.343 52.3947L782.803 64.5852ZM821.634 40.4355L813.649 32L802.109 44.1905L810.094 52.6261L821.634 40.4355ZM790.586 32L782.803 40.222L794.326 52.3947L802.109 44.1728L790.586 32ZM810.111 52.6261L802.328 60.848L813.868 73.0385L821.651 64.8165L810.111 52.6261ZM732.366 47.2338V57.787H746.786V47.2338H732.366ZM770.927 57.787V47.2338H756.507V57.787H770.927ZM756.507 32L746.786 32V47.2338L756.507 47.2338V32ZM756.507 57.787L746.786 57.787V73.0207L756.507 73.0207V57.787ZM884.891 64.5852L892.876 73.0207L904.415 60.8302L896.43 52.3947L884.891 64.5852ZM923.721 40.4355L915.736 32L904.196 44.1905L912.182 52.6261L923.721 40.4355ZM892.674 32L884.891 40.222L896.414 52.3947L904.196 44.1728L892.674 32ZM912.198 52.6261L904.415 60.848L915.955 73.0385L923.738 64.8165L912.198 52.6261ZM834.454 47.2338V57.787H848.874V47.2338H834.454ZM873.014 57.787V47.2338H858.594V57.787H873.014ZM858.594 32H848.874V47.2338H858.594V32ZM858.594 57.787H848.874V73.0207H858.594V57.787ZM986.978 64.5852L994.963 73.0207L1006.5 60.8302L998.518 52.3947L986.978 64.5852ZM1025.81 40.4355L1017.82 32L1006.28 44.1905L1014.27 52.6261L1025.81 40.4355ZM994.761 32L986.978 40.222L998.501 52.3947L1006.28 44.1728L994.761 32ZM1014.29 52.6261L1006.5 60.848L1018.04 73.0385L1025.83 64.8165L1014.29 52.6261ZM936.541 47.2338V57.787H950.961V47.2338H936.541ZM975.102 57.787V47.2338H960.681V57.787H975.102ZM960.681 32H950.961V47.2338H960.681V32ZM960.681 57.787H950.961V73.0207H960.681V57.787ZM1089.07 64.5852L1097.05 73.0207L1108.59 60.8302L1100.61 52.3947L1089.07 64.5852ZM1127.9 40.4355L1119.91 32L1108.37 44.1905L1116.36 52.6261L1127.9 40.4355ZM1096.85 32L1089.07 40.222L1100.59 52.3947L1108.37 44.1728L1096.85 32ZM1116.37 52.6261L1108.59 60.848L1120.13 73.0385L1127.91 64.8165L1116.37 52.6261ZM1038.63 47.2338V57.787H1053.05V47.2338H1038.63ZM1077.19 57.787V47.2338H1062.77V57.787H1077.19ZM1062.77 32H1053.05V47.2338H1062.77V32ZM1062.77 57.787H1053.05V73.0207H1062.77V57.787ZM1191.15 64.5852L1199.14 73.0207L1210.68 60.8302L1202.69 52.3947L1191.15 64.5852ZM1229.98 40.4355L1222 32L1210.46 44.1905L1218.44 52.6261L1229.98 40.4355ZM1198.94 32L1191.15 40.222L1202.68 52.3947L1210.46 44.1728L1198.94 32ZM1218.46 52.6261L1210.68 60.848L1222.22 73.0385L1230 64.8165L1218.46 52.6261ZM1140.72 47.2338V57.787H1155.14V47.2338H1140.72ZM1179.28 57.787V47.2338H1164.86V57.787H1179.28ZM1164.86 32L1155.14 32V47.2338L1164.86 47.2338V32ZM1164.86 57.787L1155.14 57.787V73.0207L1164.86 73.0207V57.787Z" fill="url(#paint0_linear_2239_39981)"/>
<defs>
<filter id="filter0_d_2239_39981" x="0" y="0" width="1280" height="307" filterUnits="userSpaceOnUse" color-interpolation-filters="sRGB">
<feFlood flood-opacity="0" result="BackgroundImageFix"/>
<feColorMatrix in="SourceAlpha" type="matrix" values="0 0 0 0 0 0 0 0 0 0 0 0 0 0 0 0 0 0 127 0" result="hardAlpha"/>
<feOffset dy="20"/>
<feGaussianBlur stdDeviation="25"/>
<feColorMatrix type="matrix" values="0 0 0 0 0.74902 0 0 0 0 0.0823529 0 0 0 0 0.423529 0 0 0 0.05 0"/>
<feBlend mode="normal" in2="BackgroundImageFix" result="effect1_dropShadow_2239_39981"/>
<feBlend mode="normal" in="SourceGraphic" in2="effect1_dropShadow_2239_39981" result="shape"/>
</filter>
<linearGradient id="paint0_linear_2239_39981" x1="1209.67" y1="134.009" x2="324.067" y2="134.009" gradientUnits="userSpaceOnUse">
<stop stop-color="white"/>
<stop offset="1" stop-color="#4D2C77"/>
</linearGradient>
</defs>
</svg>
