<svg width="906" height="212" viewBox="0 0 906 212" fill="none" xmlns="http://www.w3.org/2000/svg">
<path opacity="0.3" d="M844.006 190.705L836.021 181.947L847.561 169.292L855.546 178.049L844.006 190.705ZM816.716 203.12L824.701 211.878L836.24 199.222L828.255 190.465L816.716 203.12ZM847.763 211.878L855.546 203.342L844.023 190.705L836.24 199.241L847.763 211.878ZM828.238 190.465L836.021 181.929L824.482 169.273L816.699 177.809L828.238 190.465ZM905.983 196.063V185.107H891.563V196.063H905.983ZM867.422 185.107V196.063H881.843V185.107H867.422ZM881.843 211.878H891.563V196.063H881.843V211.878ZM881.843 185.107H891.563V169.292H881.843V185.107ZM753.459 178.049L745.474 169.292L733.934 181.947L741.919 190.705L753.459 178.049ZM714.628 203.12L722.613 211.878L734.153 199.222L726.168 190.465L714.628 203.12ZM745.676 211.878L753.459 203.342L741.936 190.705L734.153 199.241L745.676 211.878ZM726.151 190.465L733.934 181.929L722.394 169.273L714.611 177.809L726.151 190.465ZM803.896 196.063V185.107H789.476V196.063H803.896ZM765.335 185.107V196.063H779.755V185.107H765.335ZM779.755 211.878H789.476V196.063H779.755V211.878ZM779.755 185.107H789.476V169.292H779.755V185.107ZM651.371 178.049L643.386 169.292L631.847 181.947L639.832 190.705L651.371 178.049ZM612.541 203.12L620.526 211.878L632.066 199.222L624.081 190.465L612.541 203.12ZM643.588 211.878L651.371 203.342L639.848 190.705L632.066 199.241L643.588 211.878ZM624.064 190.465L631.847 181.929L620.307 169.273L612.524 177.809L624.064 190.465ZM701.808 196.063V185.107H687.388V196.063H701.808ZM663.248 185.107V196.063H677.668V185.107H663.248ZM677.668 211.878H687.388V196.063H677.668V211.878ZM677.668 185.107H687.388V169.292H677.668V185.107ZM549.284 178.049L541.299 169.292L529.759 181.947L537.744 190.705L549.284 178.049ZM510.454 203.12L518.439 211.878L529.978 199.222L521.993 190.465L510.454 203.12ZM541.501 211.878L549.284 203.342L537.761 190.705L529.978 199.241L541.501 211.878ZM521.976 190.465L529.759 181.929L518.22 169.273L510.437 177.809L521.976 190.465ZM599.721 196.063V185.107H585.301V196.063H599.721ZM561.16 185.107V196.063L575.581 196.063V185.107L561.16 185.107ZM575.581 211.878H585.301V196.063H575.581V211.878ZM575.581 185.107H585.301V169.292H575.581V185.107ZM447.196 178.049L439.211 169.292L427.672 181.947L435.657 190.705L447.196 178.049ZM408.366 203.12L416.351 211.878L427.891 199.222L419.906 190.465L408.366 203.12ZM439.414 211.878L447.196 203.342L435.674 190.705L427.891 199.241L439.414 211.878ZM419.889 190.465L427.672 181.929L416.132 169.273L408.349 177.809L419.889 190.465ZM497.634 196.063V185.107H483.213V196.063H497.634ZM459.073 185.107V196.063H473.493V185.107H459.073ZM473.493 211.878H483.213V196.063H473.493V211.878ZM473.493 185.107H483.213V169.292H473.493V185.107ZM345.109 178.049L337.124 169.292L325.584 181.947L333.57 190.705L345.109 178.049ZM306.279 203.12L314.264 211.878L325.803 199.222L317.818 190.465L306.279 203.12ZM337.326 211.878L345.109 203.342L333.586 190.705L325.803 199.241L337.326 211.878ZM317.802 190.465L325.584 181.929L314.045 169.273L306.262 177.809L317.802 190.465ZM395.546 196.063V185.107H381.126V196.063H395.546ZM356.986 185.107V196.063H371.406V185.107H356.986ZM371.406 211.878H381.126V196.063H371.406V211.878ZM371.406 185.107H381.126V169.292H371.406V185.107ZM243.022 178.049L235.037 169.292L223.497 181.947L231.482 190.705L243.022 178.049ZM204.192 203.12L212.177 211.878L223.716 199.222L215.731 190.465L204.192 203.12ZM235.239 211.878L243.022 203.342L231.499 190.705L223.716 199.241L235.239 211.878ZM215.714 190.465L223.497 181.929L211.958 169.273L204.175 177.809L215.714 190.465ZM293.459 196.063V185.107H279.039V196.063H293.459ZM254.898 185.107V196.063H269.319V185.107H254.898ZM269.319 211.878H279.039V196.063H269.319V211.878ZM269.319 185.107H279.039V169.292H269.319V185.107ZM140.934 178.049L132.949 169.292L121.41 181.947L129.395 190.705L140.934 178.049ZM102.104 203.12L110.089 211.878L121.629 199.222L113.644 190.465L102.104 203.12ZM133.152 211.878L140.934 203.342L129.412 190.705L121.629 199.241L133.152 211.878ZM113.627 190.465L121.41 181.929L109.87 169.273L102.087 177.809L113.627 190.465ZM191.372 196.063V185.107L176.951 185.107V196.063L191.372 196.063ZM152.811 185.107V196.063H167.231V185.107H152.811ZM167.231 211.878L176.951 211.878V196.063H167.231V211.878ZM167.231 185.107H176.951V169.292H167.231V185.107ZM38.8471 178.049L30.8621 169.292L19.3224 181.947L27.3075 190.705L38.8471 178.049ZM0.0169067 203.12L8.00189 211.878L19.5414 199.222L11.5564 190.465L0.0169067 203.12ZM31.0642 211.878L38.8471 203.342L27.3243 190.705L19.5414 199.241L31.0642 211.878ZM11.5396 190.465L19.3224 181.929L7.7829 169.273L0 177.809L11.5396 190.465ZM89.2844 196.063V185.107H74.8641V196.063H89.2844ZM50.7236 185.107V196.063H65.1439V185.107H50.7236ZM65.1439 211.878H74.8641V196.063H65.1439V211.878ZM65.1439 185.107H74.8641V169.292H65.1439V185.107ZM50.4541 146.326L58.4391 155.084L69.9787 142.428L61.9937 133.671L50.4541 146.326ZM89.2844 121.255L81.2993 112.498L69.7596 125.153L77.7447 133.911L89.2844 121.255ZM58.237 112.498L50.4541 121.033L61.9768 133.671L69.7596 125.135L58.237 112.498ZM77.7615 133.911L69.9787 142.447L81.5182 155.102L89.3012 146.567L77.7615 133.911ZM0.0169067 128.313V139.269L14.4371 139.269V128.313L0.0169067 128.313ZM38.5775 139.269V128.313H24.1573V139.269H38.5775ZM24.1573 112.498H14.4371V128.313H24.1573V112.498ZM24.1573 139.269H14.4371V155.084H24.1573V139.269ZM152.541 146.326L160.526 155.084L172.066 142.428L164.081 133.671L152.541 146.326ZM191.372 121.255L183.387 112.498L171.847 125.153L179.832 133.911L191.372 121.255ZM160.324 112.498L152.541 121.033L164.064 133.671L171.847 125.135L160.324 112.498ZM179.849 133.911L172.066 142.447L183.606 155.102L191.388 146.567L179.849 133.911ZM102.104 128.313V139.269H116.524V128.313H102.104ZM140.665 139.269V128.313H126.245V139.269H140.665ZM126.245 112.498H116.524V128.313H126.245V112.498ZM126.245 139.269H116.524V155.084H126.245V139.269ZM254.629 146.326L262.614 155.084L274.153 142.428L266.168 133.671L254.629 146.326ZM293.459 121.255L285.474 112.498L273.934 125.153L281.919 133.911L293.459 121.255ZM262.412 112.498L254.629 121.033L266.151 133.671L273.934 125.135L262.412 112.498ZM281.936 133.911L274.153 142.447L285.693 155.102L293.476 146.567L281.936 133.911ZM204.192 128.313V139.269L218.612 139.269V128.313L204.192 128.313ZM242.752 139.269V128.313H228.332V139.269H242.752ZM228.332 112.498H218.612V128.313H228.332V112.498ZM228.332 139.269H218.612V155.084H228.332V139.269ZM356.716 146.326L364.701 155.084L376.241 142.428L368.256 133.671L356.716 146.326ZM395.546 121.255L387.561 112.498L376.022 125.153L384.007 133.911L395.546 121.255ZM364.499 112.498L356.716 121.033L368.239 133.671L376.022 125.135L364.499 112.498ZM384.024 133.911L376.241 142.447L387.78 155.102L395.563 146.567L384.024 133.911ZM306.279 128.313V139.269H320.699V128.313H306.279ZM344.84 139.269V128.313H330.419V139.269H344.84ZM330.419 112.498H320.699V128.313H330.419V112.498ZM330.419 139.269H320.699V155.084H330.419V139.269ZM458.803 146.326L466.788 155.084L478.328 142.428L470.343 133.671L458.803 146.326ZM497.634 121.255L489.649 112.498L478.109 125.153L486.094 133.911L497.634 121.255ZM466.586 112.498L458.803 121.033L470.326 133.671L478.109 125.135L466.586 112.498ZM486.111 133.911L478.328 142.447L489.868 155.102L497.651 146.567L486.111 133.911ZM408.366 128.313V139.269H422.786V128.313H408.366ZM446.927 139.269V128.313H432.507V139.269H446.927ZM432.507 112.498H422.786V128.313H432.507V112.498ZM432.507 139.269H422.786V155.084H432.507V139.269ZM560.891 146.326L568.876 155.084L580.415 142.428L572.43 133.671L560.891 146.326ZM599.721 121.255L591.736 112.498L580.196 125.153L588.182 133.911L599.721 121.255ZM568.674 112.498L560.891 121.033L572.414 133.671L580.196 125.135L568.674 112.498ZM588.198 133.911L580.415 142.447L591.955 155.102L599.738 146.567L588.198 133.911ZM510.454 128.313V139.269H524.874V128.313H510.454ZM549.014 139.269V128.313L534.594 128.313V139.269L549.014 139.269ZM534.594 112.498H524.874V128.313H534.594V112.498ZM534.594 139.269H524.874V155.084H534.594V139.269ZM662.978 146.326L670.963 155.084L682.503 142.428L674.518 133.671L662.978 146.326ZM701.808 121.255L693.823 112.498L682.284 125.153L690.269 133.911L701.808 121.255ZM670.761 112.498L662.978 121.033L674.501 133.671L682.284 125.135L670.761 112.498ZM690.286 133.911L682.503 142.447L694.042 155.102L701.825 146.567L690.286 133.911ZM612.541 128.313V139.269H626.961V128.313H612.541ZM651.102 139.269V128.313H636.681V139.269H651.102ZM636.681 112.498H626.961V128.313H636.681V112.498ZM636.681 139.269H626.961V155.084H636.681V139.269ZM765.066 146.326L773.051 155.084L784.59 142.428L776.605 133.671L765.066 146.326ZM803.896 121.255L795.911 112.498L784.371 125.153L792.356 133.911L803.896 121.255ZM772.848 112.498L765.066 121.033L776.588 133.671L784.371 125.135L772.848 112.498ZM792.373 133.911L784.59 142.447L796.13 155.102L803.913 146.567L792.373 133.911ZM714.628 128.313V139.269H729.049V128.313H714.628ZM753.189 139.269V128.313L738.769 128.313V139.269L753.189 139.269ZM738.769 112.498H729.049V128.313H738.769V112.498ZM738.769 139.269H729.049V155.084H738.769V139.269ZM867.153 146.326L875.138 155.084L886.678 142.428L878.692 133.671L867.153 146.326ZM905.983 121.255L897.998 112.498L886.459 125.153L894.444 133.911L905.983 121.255ZM874.936 112.498L867.153 121.033L878.676 133.671L886.459 125.135L874.936 112.498ZM894.46 133.911L886.678 142.447L898.217 155.102L906 146.567L894.46 133.911ZM816.716 128.313V139.269H831.136V128.313H816.716ZM855.276 139.269V128.313H840.856V139.269H855.276ZM840.856 112.498H831.136V128.313H840.856V112.498ZM840.856 139.269H831.136V155.084H840.856V139.269ZM855.546 65.6433L847.561 56.8858L836.021 69.5417L844.006 78.2991L855.546 65.6433ZM816.716 90.7147L824.701 99.4722L836.24 86.8163L828.255 78.0589L816.716 90.7147ZM847.763 99.4722L855.546 90.9364L844.023 78.2991L836.24 86.8348L847.763 99.4722ZM828.238 78.0589L836.021 69.5232L824.482 56.8673L816.699 65.4031L828.238 78.0589ZM905.983 83.657V72.701H891.563V83.657H905.983ZM867.422 72.701V83.657H881.843V72.701H867.422ZM881.843 99.4722H891.563V83.657H881.843V99.4722ZM881.843 72.701H891.563V56.8858H881.843V72.701ZM753.459 65.6433L745.474 56.8858L733.934 69.5417L741.919 78.2991L753.459 65.6433ZM714.628 90.7147L722.613 99.4722L734.153 86.8163L726.168 78.0589L714.628 90.7147ZM745.676 99.4722L753.459 90.9364L741.936 78.2991L734.153 86.8348L745.676 99.4722ZM726.151 78.0589L733.934 69.5232L722.394 56.8673L714.611 65.4031L726.151 78.0589ZM803.896 83.657V72.701H789.476V83.657H803.896ZM765.335 72.701V83.657H779.755V72.701H765.335ZM779.755 99.4722H789.476V83.657H779.755V99.4722ZM779.755 72.701H789.476V56.8858H779.755V72.701ZM651.371 65.6433L643.386 56.8858L631.847 69.5417L639.832 78.2991L651.371 65.6433ZM612.541 90.7147L620.526 99.4722L632.066 86.8163L624.081 78.0589L612.541 90.7147ZM643.588 99.4722L651.371 90.9364L639.848 78.2991L632.066 86.8348L643.588 99.4722ZM624.064 78.0589L631.847 69.5232L620.307 56.8673L612.524 65.4031L624.064 78.0589ZM701.808 83.657V72.701H687.388V83.657H701.808ZM663.248 72.701V83.657H677.668V72.701H663.248ZM677.668 99.4722H687.388V83.657H677.668V99.4722ZM677.668 72.701H687.388V56.8858H677.668V72.701ZM549.284 65.6433L541.299 56.8858L529.759 69.5417L537.744 78.2991L549.284 65.6433ZM510.454 90.7147L518.439 99.4722L529.978 86.8163L521.993 78.0589L510.454 90.7147ZM541.501 99.4722L549.284 90.9364L537.761 78.2991L529.978 86.8348L541.501 99.4722ZM521.976 78.0589L529.759 69.5232L518.22 56.8673L510.437 65.4031L521.976 78.0589ZM599.721 83.657V72.701H585.301V83.657H599.721ZM561.16 72.701V83.657L575.581 83.657V72.701L561.16 72.701ZM575.581 99.4722H585.301V83.657H575.581V99.4722ZM575.581 72.701H585.301V56.8858H575.581V72.701ZM447.196 65.6433L439.211 56.8858L427.672 69.5417L435.657 78.2991L447.196 65.6433ZM408.366 90.7147L416.351 99.4722L427.891 86.8163L419.906 78.0589L408.366 90.7147ZM439.414 99.4722L447.196 90.9364L435.674 78.2991L427.891 86.8348L439.414 99.4722ZM419.889 78.0589L427.672 69.5232L416.132 56.8673L408.349 65.4031L419.889 78.0589ZM497.634 83.657V72.701H483.213V83.657H497.634ZM459.073 72.701V83.657H473.493V72.701H459.073ZM473.493 99.4722L483.213 99.4722V83.657H473.493V99.4722ZM473.493 72.701H483.213L483.213 56.8858H473.493L473.493 72.701ZM345.109 65.6433L337.124 56.8858L325.584 69.5417L333.57 78.2991L345.109 65.6433ZM306.279 90.7147L314.264 99.4722L325.803 86.8163L317.818 78.0589L306.279 90.7147ZM337.326 99.4722L345.109 90.9364L333.586 78.2991L325.803 86.8348L337.326 99.4722ZM317.802 78.0589L325.584 69.5232L314.045 56.8673L306.262 65.4031L317.802 78.0589ZM395.546 83.657V72.701H381.126V83.657H395.546ZM356.986 72.701V83.657H371.406V72.701H356.986ZM371.406 99.4722H381.126V83.657H371.406V99.4722ZM371.406 72.701H381.126V56.8858H371.406V72.701ZM243.022 65.6433L235.037 56.8858L223.497 69.5417L231.482 78.2991L243.022 65.6433ZM204.192 90.7147L212.177 99.4722L223.716 86.8163L215.731 78.0589L204.192 90.7147ZM235.239 99.4722L243.022 90.9364L231.499 78.2991L223.716 86.8348L235.239 99.4722ZM215.714 78.0589L223.497 69.5232L211.958 56.8673L204.175 65.4031L215.714 78.0589ZM293.459 83.657V72.701H279.039V83.657H293.459ZM254.898 72.701V83.657H269.319V72.701H254.898ZM269.319 99.4722L279.039 99.4722V83.657H269.319V99.4722ZM269.319 72.701H279.039V56.8858H269.319V72.701ZM140.934 65.6433L132.949 56.8858L121.41 69.5417L129.395 78.2991L140.934 65.6433ZM102.104 90.7147L110.089 99.4722L121.629 86.8163L113.644 78.0589L102.104 90.7147ZM133.152 99.4722L140.934 90.9364L129.412 78.2991L121.629 86.8348L133.152 99.4722ZM113.627 78.0589L121.41 69.5232L109.87 56.8673L102.087 65.4031L113.627 78.0589ZM191.372 83.657V72.701H176.951V83.657H191.372ZM152.811 72.701V83.657H167.231V72.701H152.811ZM167.231 99.4722H176.951V83.657L167.231 83.657V99.4722ZM167.231 72.701L176.951 72.701V56.8858L167.231 56.8858V72.701ZM38.8471 65.6433L30.8621 56.8858L19.3224 69.5417L27.3075 78.2991L38.8471 65.6433ZM0.0169067 90.7147L8.00189 99.4722L19.5414 86.8163L11.5564 78.0589L0.0169067 90.7147ZM31.0642 99.4722L38.8471 90.9364L27.3243 78.2991L19.5414 86.8348L31.0642 99.4722ZM11.5396 78.0589L19.3224 69.5232L7.7829 56.8673L0 65.4031L11.5396 78.0589ZM89.2844 83.657V72.701H74.8641V83.657H89.2844ZM50.7236 72.701V83.657H65.1439V72.701H50.7236ZM65.1439 99.4722H74.8641V83.657H65.1439V99.4722ZM65.1439 72.701H74.8641V56.8858H65.1439V72.701ZM50.4541 33.9206L58.4391 42.6781L69.9787 30.0222L61.9937 21.2648L50.4541 33.9206ZM89.2844 8.84917L81.2993 0.0916748L69.7596 12.7475L77.7447 21.505L89.2844 8.84917ZM58.237 0.0916748L50.4541 8.62747L61.9768 21.2648L69.7596 12.7291L58.237 0.0916748ZM77.7615 21.505L69.9787 30.0407L81.5182 42.6965L89.3012 34.1608L77.7615 21.505ZM0.0169067 15.9069V26.8629H14.4371V15.9069H0.0169067ZM38.5775 26.8629V15.9069H24.1573V26.8629H38.5775ZM24.1573 0.0916748H14.4371V15.9069H24.1573V0.0916748ZM24.1573 26.8629H14.4371V42.6781H24.1573V26.8629ZM152.541 33.9206L160.526 42.6781L172.066 30.0222L164.081 21.2648L152.541 33.9206ZM191.372 8.84917L183.387 0.0916748L171.847 12.7475L179.832 21.505L191.372 8.84917ZM160.324 0.0916748L152.541 8.62747L164.064 21.2648L171.847 12.7291L160.324 0.0916748ZM179.849 21.505L172.066 30.0407L183.606 42.6965L191.388 34.1608L179.849 21.505ZM102.104 15.9069V26.8629H116.524V15.9069H102.104ZM140.665 26.8629V15.9069H126.245V26.8629H140.665ZM126.245 0.0916748H116.524V15.9069H126.245V0.0916748ZM126.245 26.8629H116.524V42.6781H126.245V26.8629ZM254.629 33.9206L262.614 42.6781L274.153 30.0222L266.168 21.2648L254.629 33.9206ZM293.459 8.84917L285.474 0.0916748L273.934 12.7475L281.919 21.505L293.459 8.84917ZM262.412 0.0916748L254.629 8.62747L266.151 21.2648L273.934 12.7291L262.412 0.0916748ZM281.936 21.505L274.153 30.0407L285.693 42.6965L293.476 34.1608L281.936 21.505ZM204.192 15.9069V26.8629H218.612V15.9069H204.192ZM242.752 26.8629V15.9069H228.332V26.8629H242.752ZM228.332 0.0916748H218.612V15.9069H228.332V0.0916748ZM228.332 26.8629H218.612V42.6781H228.332V26.8629ZM356.716 33.9206L364.701 42.6781L376.241 30.0222L368.256 21.2648L356.716 33.9206ZM395.546 8.84917L387.561 0.0916748L376.022 12.7475L384.007 21.505L395.546 8.84917ZM364.499 0.0916748L356.716 8.62747L368.239 21.2648L376.022 12.7291L364.499 0.0916748ZM384.024 21.505L376.241 30.0407L387.78 42.6965L395.563 34.1608L384.024 21.505ZM306.279 15.9069V26.8629L320.699 26.8629V15.9069L306.279 15.9069ZM344.84 26.8629V15.9069H330.419V26.8629H344.84ZM330.419 0.0916748H320.699V15.9069H330.419V0.0916748ZM330.419 26.8629H320.699V42.6781H330.419V26.8629ZM458.803 33.9206L466.788 42.6781L478.328 30.0222L470.343 21.2648L458.803 33.9206ZM497.634 8.84917L489.649 0.0916748L478.109 12.7475L486.094 21.505L497.634 8.84917ZM466.586 0.0916748L458.803 8.62747L470.326 21.2648L478.109 12.7291L466.586 0.0916748ZM486.111 21.505L478.328 30.0407L489.868 42.6965L497.651 34.1608L486.111 21.505ZM408.366 15.9069V26.8629H422.786V15.9069H408.366ZM446.927 26.8629V15.9069L432.507 15.9069V26.8629L446.927 26.8629ZM432.507 0.0916748H422.786V15.9069H432.507V0.0916748ZM432.507 26.8629H422.786V42.6781H432.507V26.8629ZM560.891 33.9206L568.876 42.6781L580.415 30.0222L572.43 21.2648L560.891 33.9206ZM599.721 8.84917L591.736 0.0916748L580.196 12.7475L588.182 21.505L599.721 8.84917ZM568.674 0.0916748L560.891 8.62747L572.414 21.2648L580.196 12.7291L568.674 0.0916748ZM588.198 21.505L580.415 30.0407L591.955 42.6965L599.738 34.1608L588.198 21.505ZM510.454 15.9069V26.8629H524.874V15.9069H510.454ZM549.014 26.8629V15.9069H534.594V26.8629H549.014ZM534.594 0.0916748H524.874V15.9069H534.594V0.0916748ZM534.594 26.8629H524.874V42.6781H534.594V26.8629ZM662.978 33.9206L670.963 42.6781L682.503 30.0222L674.518 21.2648L662.978 33.9206ZM701.808 8.84917L693.823 0.0916748L682.284 12.7475L690.269 21.505L701.808 8.84917ZM670.761 0.0916748L662.978 8.62747L674.501 21.2648L682.284 12.7291L670.761 0.0916748ZM690.286 21.505L682.503 30.0407L694.042 42.6965L701.825 34.1608L690.286 21.505ZM612.541 15.9069V26.8629H626.961V15.9069H612.541ZM651.102 26.8629V15.9069H636.681V26.8629H651.102ZM636.681 0.0916748H626.961V15.9069H636.681V0.0916748ZM636.681 26.8629H626.961V42.6781H636.681V26.8629ZM765.066 33.9206L773.051 42.6781L784.59 30.0222L776.605 21.2648L765.066 33.9206ZM803.896 8.84917L795.911 0.0916748L784.371 12.7475L792.356 21.505L803.896 8.84917ZM772.848 0.0916748L765.066 8.62747L776.588 21.2648L784.371 12.7291L772.848 0.0916748ZM792.373 21.505L784.59 30.0407L796.13 42.6965L803.913 34.1608L792.373 21.505ZM714.628 15.9069V26.8629H729.049V15.9069H714.628ZM753.189 26.8629V15.9069H738.769V26.8629H753.189ZM738.769 0.0916748H729.049V15.9069H738.769V0.0916748ZM738.769 26.8629H729.049V42.6781H738.769V26.8629ZM867.153 33.9206L875.138 42.6781L886.678 30.0222L878.692 21.2648L867.153 33.9206ZM905.983 8.84917L897.998 0.0916748L886.459 12.7475L894.444 21.505L905.983 8.84917ZM874.936 0.0916748L867.153 8.62747L878.676 21.2648L886.459 12.7291L874.936 0.0916748ZM894.46 21.505L886.678 30.0407L898.217 42.6965L906 34.1608L894.46 21.505ZM816.716 15.9069V26.8629H831.136V15.9069H816.716ZM855.276 26.8629V15.9069H840.856V26.8629H855.276ZM840.856 0.0916748L831.136 0.0916748V15.9069L840.856 15.9069V0.0916748ZM840.856 26.8629L831.136 26.8629V42.6781L840.856 42.6781V26.8629Z" fill="url(#paint0_linear_2239_37320)"/>
<defs>
<linearGradient id="paint0_linear_2239_37320" x1="885.669" y1="105.994" x2="0.0674027" y2="105.994" gradientUnits="userSpaceOnUse">
<stop stop-color="white"/>
<stop offset="1" stop-color="#4D2C77"/>
</linearGradient>
</defs>
</svg>
